HIERARCHY
ROOT Hips
{
	OFFSET 0.000000 0.000000 0.000000
	CHANNELS 6 Xposition Yposition Zposition Zrotation Yrotation Xrotation 
	JOINT LHipJoint
	{
		OFFSET 0.000000 0.000000 0.000000
		CHANNELS 3 Zrotation Yrotation Xrotation
		JOINT LeftUpLeg
		{
			OFFSET 1.363060 -1.794630 0.839290
			CHANNELS 3 Zrotation Yrotation Xrotation
			JOINT LeftLeg
			{
				OFFSET 2.448110 -6.726130 0.000000
				CHANNELS 3 Zrotation Yrotation Xrotation
				JOINT LeftFoot
				{
					OFFSET 2.562200 -7.039590 0.000000
					CHANNELS 3 Zrotation Yrotation Xrotation
					JOINT LeftToeBase
					{
						OFFSET 0.157640 -0.433110 2.322550
						CHANNELS 3 Zrotation Yrotation Xrotation
						End Site
						{
							OFFSET 0.000000 0.000000 0.000000
						}
					}
				}
			}
		}
	}
	JOINT RHipJoint
	{
		OFFSET 0.000000 0.000000 0.000000
		CHANNELS 3 Zrotation Yrotation Xrotation
		JOINT RightUpLeg
		{
			OFFSET -1.305520 -1.794630 0.839290
			CHANNELS 3 Zrotation Yrotation Xrotation
			JOINT RightLeg
			{
				OFFSET -2.542530 -6.985550 0.000000
				CHANNELS 3 Zrotation Yrotation Xrotation
				JOINT RightFoot
				{
					OFFSET -2.568260 -7.056230 0.000000
					CHANNELS 3 Zrotation Yrotation Xrotation
					JOINT RightToeBase
					{
						OFFSET -0.164730 -0.452590 2.363150
						CHANNELS 3 Zrotation Yrotation Xrotation
						End Site
						{
							OFFSET 0.000000 0.000000 0.000000
						}
					}
				}
			}
		}
	}
}
MOTION
Frames: 30
Frame Time: 0.008333
14.632396 17.291845 1.859537 -52.279626 -88.402065 82.929468 -10.215750 -0.810026 -0.964556 -14.684790 7.968913 -53.025793 -3.183250 1.744427 27.592400 -0.180501 -1.997896 3.992529 -0.092400 -0.000000 -51.209001 8.344273 -1.176261 -2.116233 20.650324 -9.787593 -55.791613 3.713498 -4.090654 35.610562 1.510366 9.609756 10.104510 2.574900 -0.000000 -75.822200
14.459689 16.998593 1.829047 -46.143625 -88.413132 76.662043 -10.191363 -0.812675 -0.798897 -14.560181 7.409329 -54.038981 -3.186950 1.998482 32.011318 0.079585 -1.215149 -2.895808 0.074001 0.000000 -47.423600 8.205559 -1.221104 -2.075676 20.764658 -9.441814 -56.534570 3.554438 -4.334412 39.614085 1.335732 8.660638 4.116647 1.513400 -0.000000 -73.761700
14.297697 16.715071 1.796140 -39.522935 -88.414423 70.027003 -10.164110 -0.828050 -0.633021 -14.415982 6.704485 -55.312250 -3.175008 2.298822 36.582802 0.451008 -0.353677 -9.547159 -0.018200 -0.000000 -42.951300 8.062437 -1.197869 -2.014805 20.844684 -8.899854 -57.427333 3.381569 -4.546477 43.653182 1.037348 7.531535 -1.922812 0.665900 -0.000000 -71.227199
14.146794 16.446721 1.761675 -33.224243 -88.376086 63.817667 -10.136902 -0.854640 -0.473666 -14.200347 5.861182 -56.776794 -3.116250 2.640488 41.185153 0.908437 0.632554 -15.627979 -0.356200 0.000000 -38.350800 7.936536 -1.111447 -1.938178 20.892328 -8.164348 -58.394764 3.188450 -4.727421 47.594960 0.610695 6.198210 -7.752066 0.121400 0.000000 -68.268300
14.006846 16.198517 1.726635 -27.892839 -88.283489 58.659581 -10.117400 -0.902820 -0.329701 -13.876716 4.905799 -58.361626 -2.981775 3.008244 45.714896 1.406632 1.773385 -20.830978 -0.895701 0.000000 -34.682999 7.839912 -0.979959 -1.850478 20.904570 -7.250745 -59.364009 2.969271 -4.881494 51.322632 0.070546 4.636274 -13.147021 -0.074600 0.000000 -65.112100
13.877285 15.974596 1.691947 -23.829841 -88.147662 54.825873 -10.115464 -0.987502 -0.210556 -13.427506 3.877590 -59.989774 -2.757543 3.380961 50.098017 1.893515 3.060711 -24.974170 -1.567501 -0.000000 -32.417400 7.772871 -0.824334 -1.759462 20.870695 -6.188919 -60.263066 2.721659 -5.011348 54.746811 -0.550087 2.854496 -17.949730 0.075900 0.000000 -61.894700
13.757169 15.778105 1.658367 -21.065163 -87.998152 52.314307 -10.138223 -1.118485 -0.125044 -12.854277 2.824866 -61.586055 -2.443783 3.738099 54.275082 2.322417 4.459839 -27.953565 -2.283500 0.000000 -31.862600 7.729742 -0.661107 -1.674096 20.778885 -5.017288 -61.022919 2.447757 -5.115363 57.797033 -1.207488 0.892673 -22.047795 0.526400 -0.000001 -58.891000
13.645111 15.611020 1.626439 -19.482906 -87.868233 50.977211 -10.186202 -1.297065 -0.080878 -12.176208 1.797054 -63.085231 -2.051624 4.064185 58.206710 2.661736 5.915400 -29.748440 -2.949900 -0.000000 -32.971700 7.704871 -0.501063 -1.602741 20.620678 -3.781578 -61.584386 2.156395 -5.189999 60.425029 -1.854522 -1.170055 -25.384892 1.194200 0.000000 -56.345200
13.539355 15.474042 1.596462 -18.931444 -87.783531 50.637205 -10.254386 -1.517520 -0.083390 -11.426607 0.837523 -64.439950 -1.596037 4.350017 61.871256 2.897586 7.367384 -30.387317 -3.477000 0.000000 -35.577900 7.694912 -0.351997 -1.551630 20.395386 -2.531693 -61.903917 1.862105 -5.232978 62.604692 -2.448927 -3.225866 -27.961215 1.975000 0.000000 -54.421000
13.438269 15.366681 1.568605 -19.294675 -87.756308 51.156949 -10.334014 -1.771170 -0.133798 -10.645859 -0.023676 -65.626035 -1.091788 4.591424 65.262931 3.033386 8.765282 -29.939156 -3.792899 -0.000000 -39.419400 7.698756 -0.220615 -1.524010 20.111245 -1.317730 -61.961153 1.581473 -5.245517 64.329283 -2.958647 -5.158511 -29.817647 2.761700 0.000000 -53.303100
13.339763 15.287348 1.542765 -20.466592 -87.787321 52.418560 -10.414832 -2.046793 -0.229300 -9.877713 -0.769227 -66.633550 -0.554135 4.787650 68.386223 3.087327 10.076753 -28.520337 -3.855100 -0.000000 -44.069200 7.717500 -0.112083 -1.523479 19.784407 -0.195577 -61.751299 1.332165 -5.232804 65.619503 -3.365335 -6.851153 -31.066778 3.465600 -0.000000 -52.757200
13.242153 15.233333 1.518853 -22.381750 -87.866457 54.356703 -10.484639 -2.334279 -0.360551 -9.161186 -1.401277 -67.481661 0.001151 4.940027 71.256913 3.087598 11.290294 -26.291961 -3.656900 -0.000000 -48.937900 7.753966 -0.029876 -1.547542 19.431526 0.793386 -61.299146 1.126509 -5.202343 66.506016 -3.663348 -8.224371 -31.822873 4.027800 0.000000 -52.806300
13.143581 15.201319 1.496612 -24.953889 -87.978623 56.894190 -10.532027 -2.622239 -0.514288 -8.529747 -1.933351 -68.199025 0.555877 5.051265 73.891320 3.065725 12.413169 -23.450969 -3.224400 -0.000000 -53.389800 7.811772 0.025779 -1.593795 19.070528 1.609416 -60.641669 0.973202 -5.162481 67.035819 -3.857693 -9.229769 -32.228045 4.424900 -0.000000 -53.236900
13.042569 15.187808 1.475710 -28.054547 -88.108867 59.913791 -10.547921 -2.898667 -0.675811 -8.008174 -2.385888 -68.819713 1.090238 5.126032 76.306699 3.048689 13.458095 -20.217598 -2.606000 -0.000000 -56.797800 7.894307 0.058612 -1.659720 18.715664 2.220216 -59.823870 0.875498 -5.120414 67.263390 -3.960113 -9.858036 -32.413047 4.662600 -0.000000 -53.868800
12.937822 15.189101 1.455835 -31.502539 -88.244990 63.257319 -10.526894 -3.152354 -0.827085 -7.610427 -2.786746 -69.394593 1.586640 5.170649 78.516414 3.056847 14.450904 -16.806591 -1.860300 0.000000 -58.849500 8.001971 0.074264 -1.738875 18.377413 2.612649 -58.905072 0.831809 -5.080683 67.244635 -3.987354 -10.135509 -32.486812 4.765000 0.000000 -54.561000
12.828494 15.201903 1.436719 -35.004245 -88.383929 66.650370 -10.470453 -3.372942 -0.952807 -7.342783 -3.161393 -69.966998 2.030668 5.193703 80.529503 3.099673 15.411413 -13.427309 -1.046000 0.000000 -59.368899 8.130673 0.079809 -1.826530 18.060780 2.782756 -57.938902 0.836419 -5.044508 67.034238 -3.957160 -10.112145 -32.524893 4.763100 -0.000000 -55.224000
12.713936 15.223447 1.418207 -38.156533 -88.531320 69.709722 -10.387349 -3.553791 -1.040230 -7.203469 -3.532264 -70.574285 2.413692 5.204700 82.347347 3.177141 16.352634 -10.264125 -0.216100 0.000001 -58.397000 8.270428 0.080164 -1.917834 17.766090 2.740501 -56.973370 0.880765 -5.010237 66.679448 -3.887080 -9.853558 -32.567920 4.686300 0.000000 -55.821000
12.593808 15.251572 1.400394 -40.468588 -88.698330 71.962215 -10.293022 -3.693891 -1.080333 -7.181576 -3.915683 -71.243392 2.733392 5.212978 83.964659 3.281781 17.273593 -7.466993 0.583300 0.000000 -56.125300 8.405235 0.075751 -2.007859 17.493323 2.511410 -56.045515 0.954556 -4.974219 66.216901 -3.792963 -9.432061 -32.623178 4.559300 0.000000 -56.364100
12.468417 15.284981 1.383273 -41.163721 -88.913584 72.635781 -10.208096 -3.794499 -1.071573 -7.271314 -4.322468 -71.975884 2.991495 5.227144 85.362328 3.402638 18.163213 -5.129668 1.315300 0.000000 -52.951700 8.514842 0.067571 -2.097125 17.229018 2.121947 -55.173322 1.046797 -4.931441 65.675764 -3.686684 -8.911931 -32.678892 4.400000 -0.000000 -56.876500
12.337882 15.322872 1.367349 -39.564899 -89.194962 71.061965 -10.154627 -3.858570 -1.013545 -7.447486 -4.747592 -72.772450 3.192957 5.255302 86.521098 3.526602 18.986740 -3.310720 1.944401 -0.000000 -49.224400 8.576692 0.053292 -2.181594 16.974892 1.624467 -54.362586 1.146359 -4.874609 65.068500 -3.578440 -8.358094 -32.698449 4.222700 0.000001 -57.421200
12.202837 15.365052 1.352945 -34.679513 -89.581591 66.243280 -10.152838 -3.872614 -0.912437 -7.693406 -5.169764 -73.616304 3.342052 5.308465 87.412987 3.641950 19.703529 -2.016479 2.443000 0.000000 -45.358900 8.571273 0.047078 -2.262799 16.721706 1.074166 -53.594965 1.241328 -4.790637 64.403833 -3.473570 -7.815020 -32.643327 4.036800 0.000000 -58.041600
12.063894 15.411677 1.340457 154.403834 -89.880187 -122.740534 -10.201002 -3.786247 -0.777956 -7.982489 -5.536581 -74.494963 3.442070 5.400523 88.013148 3.738612 20.266121 -1.223466 2.789900 -0.000000 -41.673700 8.503445 0.094501 -2.340820 16.473387 0.546864 -52.829290 1.318455 -4.656910 63.684056 -3.373986 -7.312546 -32.471952 3.848200 0.000001 -58.773800
11.921806 15.463081 1.330224 167.761992 -89.176839 -135.982423 -10.221633 -3.511739 -0.627511 -8.259086 -5.772207 -75.402513 3.496395 5.530282 88.313831 3.808592 20.626878 -0.887202 2.973800 0.000000 -38.373200 8.459319 0.274321 -2.407979 16.271404 0.129601 -52.005064 1.369006 -4.453330 62.895534 -3.277039 -6.867109 -32.147106 3.659800 0.000001 -59.628900
11.777118 15.519497 1.322425 -176.154511 -88.441703 -151.943828 -10.049346 -3.047475 -0.487312 -8.441970 -5.870979 -76.304435 3.510366 5.640114 88.338263 3.846125 20.748066 -0.944495 2.997800 -0.000000 -35.577300 8.615449 0.593956 -2.442144 16.188440 -0.150505 -51.091147 1.406991 -4.213199 61.990340 -3.176602 -6.495181 -31.647636 3.471300 -0.000001 -60.610800
11.630523 15.581024 1.317108 -159.749676 -87.945193 -168.221813 -9.635930 -2.612638 -0.378982 -8.513151 -5.972256 -77.107373 3.488183 5.644922 88.110586 3.846740 20.612199 -1.313713 2.881600 0.000000 -33.346400 9.016850 0.874996 -2.431435 16.225373 -0.385648 -50.137008 1.467402 -4.031120 60.916108 -3.070333 -6.213687 -30.982052 3.281000 0.000000 -61.702700
11.482326 15.647455 1.314181 -143.766017 -87.797651 175.925196 -9.142317 -2.407671 -0.302949 -8.546531 -6.187712 -77.737763 3.428334 5.537592 87.616037 3.808637 20.228992 -1.896492 2.661499 -0.000000 -31.733499 9.489005 0.952899 -2.393472 16.285667 -0.658762 -49.193138 1.562756 -3.948290 59.677597 -2.961440 -6.015641 -30.174416 3.086600 -0.000000 -62.858000
11.333024 15.718258 1.313392 -125.281483 -87.974182 157.564009 -8.700152 -2.489886 -0.255812 -8.611428 -6.539459 -78.169296 3.328969 5.349605 86.841053 3.732372 19.622457 -2.612571 2.374300 -0.000000 -30.626100 9.892093 0.786252 -2.348284 16.291953 -0.995673 -48.268187 1.689822 -3.957098 58.302917 -2.851840 -5.881604 -29.246322 2.885700 0.000001 -64.096900
11.182447 15.792590 1.314410 -100.259816 -88.509794 132.655828 -8.501785 -2.912382 -0.217248 -8.800957 -7.045561 -78.390297 3.187278 5.135605 85.760558 3.623305 18.849894 -3.342139 2.073300 0.000000 -30.180100 10.019056 0.330874 -2.320167 16.143691 -1.426011 -47.378089 1.838894 -4.036320 56.839446 -2.746284 -5.785795 -28.235024 2.678200 -0.000000 -65.337100
11.030963 15.869432 1.316809 -68.361956 -89.364348 100.852751 -8.766168 -3.445559 -0.152264 -9.223375 -7.522218 -78.479974 2.992610 5.040604 84.330654 3.491404 17.973447 -4.035267 1.785700 -0.000000 -30.208901 9.644012 -0.238902 -2.351026 15.737660 -1.858825 -46.449877 1.949714 -4.057704 55.398490 -2.648146 -5.674203 -27.156964 2.465101 -0.000000 -66.604000
10.878316 15.947638 1.320135 138.044911 -89.736609 -105.496402 -9.173196 -3.551570 -0.071582 -9.731827 -7.624234 -78.618244 2.752619 5.102899 82.601817 3.355336 17.060547 -4.637412 1.540900 0.000000 -30.747600 9.131313 -0.485304 -2.424279 15.273888 -2.069573 -45.317507 1.973134 -3.891016 54.016694 -2.546181 -5.504787 -26.000595 2.249200 -0.000000 -67.845100
